:SAMPLES-PER-SECOND 30
:FULLY-SPECIFIED
:DEGREES
230
root  7.40306 18.3752 -58.4786 -118.608 -4.02844 179.804
RightUpLeg  -70.3159 -3.24609 14.6673
RightLeg  118.053 18.3252 -4.80484
RightFoot  0.553081 0.865741 -7.24099
RightToes  -5.82073e-011 -3.18055e-015 -2.98177e-016
Spine  29.5854 -1.32448 8.16295
Spine1  -4.30357 0.351869 -0.381742
HEad  -23.7737 -4.39366 -6.30959
LeftShoulder1  -3.88251e-019 9.70628e-020 -3.87848e-018
LeftArm  0.467366 -28.856 -70.4026
LeftForeArm  18.4597 -6.45423 -6.26101
LeftHand  -11.4222 -11.3307 71.0264
RightShoulder  4.95828 9.39709 23.9724
RightArm  0.769859 -1.26865 52.1767
RightForeArm  12.9177 34.733 -19.6737
RightHand  -10.9252 10.8865 -68.2964
LeftUpLeg  -46.0235 0.180297 -4.28696
LeftLeg  91.8515 -15.5232 19.4723
LeftFoot  -7.50581 0.301519 -6.42584
LeftToes  -3.44176e-011 4.05998e-011 -5.21293e-012
231
root  7.65538 18.4431 -58.6221 -118.348 -5.30002 178.199
RightUpLeg  -70.1188 -4.35568 14.6873
RightLeg  118.04 17.5841 -3.51508
RightFoot  0.478487 0.672487 -5.67554
RightToes  -5.82073e-011 -3.18055e-015 -2.98177e-016
Spine  30.3798 -1.89614 7.91256
Spine1  -5.5625 -0.403892 0.0704006
HEad  -23.3793 -4.33895 -5.22135
LeftShoulder1  -3.88251e-019 9.70628e-020 -3.87848e-018
LeftArm  1.2105 -29.5374 -71.0678
LeftForeArm  18.8148 -5.1427 -6.64531
LeftHand  -11.489 -11.3046 71.4318
RightShoulder  4.62877 9.1072 22.5889
RightArm  -3.30621 1.75049 53.7818
RightForeArm  12.5166 34.7632 -19.6724
RightHand  -10.4128 10.5038 -66.987
LeftUpLeg  -49.2059 -1.49439 -3.21828
LeftLeg  96.4007 -16.6866 17.903
LeftFoot  -12.3783 -0.0226998 -4.06528
LeftToes  -3.44176e-011 4.05998e-011 -5.21293e-012
232
root  7.89815 18.4967 -58.7672 -118.559 -5.88678 177.265
RightUpLeg  -69.4382 -4.81048 14.9811
RightLeg  117.602 17.5759 -3.55425
RightFoot  0.386637 0.503886 -4.30228
RightToes  -5.82073e-011 -3.18055e-015 -2.98177e-016
Spine  31.4525 -1.71042 7.19203
Spine1  -6.39892 -0.425427 0.726595
HEad  -23.2017 -4.86783 -4.48942
LeftShoulder1  -3.88251e-019 9.70628e-020 -3.87848e-018
LeftArm  1.94021 -30.2218 -71.9746
LeftForeArm  19.0583 -4.27428 -7.08925
LeftHand  -11.5338 -11.2993 71.6622
RightShoulder  4.44061 8.90926 21.8314
RightArm  -7.72817 6.20727 54.8725
RightForeArm  13.0842 33.4266 -18.8249
RightHand  -9.6102 9.91831 -64.7328
LeftUpLeg  -52.169 -1.88765 -2.39851
LeftLeg  101.065 -17.8583 16.9953
LeftFoot  -17.1175 -0.205249 -4.48524
LeftToes  -3.44176e-011 4.05998e-011 -5.21293e-012
233
root  8.10685 18.5008 -58.8749 -118.913 -6.01379 177.157
RightUpLeg  -68.6064 -4.54745 15.7406
RightLeg  116.957 18.0155 -4.43403
RightFoot  0.224968 0.452441 -3.91353
RightToes  -5.82073e-011 -3.18055e-015 -2.98177e-016
Spine  32.4367 -1.20578 7.04086
Spine1  -6.88406 0.154683 0.473367
HEad  -23.0919 -5.68554 -3.88503
LeftShoulder1  -3.88251e-019 9.70628e-020 -3.87848e-018
LeftArm  2.42208 -30.7199 -72.9775
LeftForeArm  19.5814 -4.10596 -7.31615
LeftHand  -11.5519 -11.3271 71.6547
RightShoulder  4.31549 8.78297 21.3057
RightArm  -11.8561 10.2974 55.3365
RightForeArm  14.2584 31.7856 -17.8492
RightHand  -8.91467 9.37369 -62.7313
LeftUpLeg  -54.9965 -1.40036 -1.597
LeftLeg  105.655 -18.8395 15.9012
LeftFoot  -21.0193 -0.224667 -2.67019
LeftToes  -3.44176e-011 4.05998e-011 -5.21293e-012
234
root  8.26326 18.456 -58.9913 -119.031 -5.74457 177.369
RightUpLeg  -67.9905 -4.03013 16.4367
RightLeg  116.278 18.6286 -5.67776
RightFoot  -0.0192656 0.423601 -3.72931
RightToes  -5.82073e-011 -3.18055e-015 -2.98177e-016
Spine  32.8479 -1.00342 7.26915
Spine1  -6.90683 0.6379 -0.994416
HEad  -22.7257 -5.8883 -3.14834
LeftShoulder1  -3.88251e-019 9.70628e-020 -3.87848e-018
LeftArm  2.84654 -31.1013 -73.3681
LeftForeArm  20.0124 -4.20575 -7.33437
LeftHand  -11.5006 -11.2892 71.5384
RightShoulder  4.10353 8.62232 20.2989
RightArm  -14.5332 12.0811 55.7587
RightForeArm  14.4861 30.3262 -16.9826
RightHand  -8.71877 9.13343 -62.4203
LeftUpLeg  -57.7892 -0.793862 -1.01276
LeftLeg  109.806 -19.3214 14.2916
LeftFoot  -25.0444 0.016448 1.01373
LeftToes  -3.44176e-011 4.05998e-011 -5.21293e-012
235
root  8.37782 18.4216 -59.1558 -119.063 -5.05104 177.462
RightUpLeg  -67.4393 -3.60342 16.5011
RightLeg  115.562 19.1748 -6.85455
RightFoot  -0.183072 0.379035 -3.38257
RightToes  -5.82073e-011 -3.18055e-015 -2.98177e-016
Spine  32.7897 -1.08004 6.8716
Spine1  -6.44895 0.653969 -2.43067
HEad  -21.9128 -5.08993 -2.5805
LeftShoulder1  -3.88251e-019 9.70628e-020 -3.87848e-018
LeftArm  3.06344 -31.3369 -72.6891
LeftForeArm  19.9747 -4.22022 -7.25234
LeftHand  -11.3853 -11.1737 71.3772
RightShoulder  3.85112 8.43418 19.0662
RightArm  -15.1847 12.0496 56.7384
RightForeArm  13.6514 28.8505 -16.0958
RightHand  -8.98989 9.2097 -63.7177
LeftUpLeg  -60.5448 -0.435339 -0.803682
LeftLeg  113.383 -19.1236 11.9934
LeftFoot  -29.874 -0.119908 -0.297606
LeftToes  -3.44176e-011 4.05998e-011 -5.21293e-012
